<?xml version="1.0" encoding="utf-8"?>
<!-- Generator: Adobe Illustrator 24.0.3, SVG Export Plug-In . SVG Version: 6.00 Build 0)  -->
<svg version="1.1" xmlns="http://www.w3.org/2000/svg" xmlns:xlink="http://www.w3.org/1999/xlink" x="0px" y="0px"
	 viewBox="0 0 1000 1000" style="enable-background:new 0 0 1000 1000;" xml:space="preserve">
<style type="text/css">
	.st0{fill:#D3D3D3;}
</style>
<g id="Ebene_4">
</g>
<g id="Ebene_2">
</g>
<g id="Ebene_5">
	<g>
		<path d="M57.72,157.28l111.41,111.41C50.11,365.43,0,488.5,0,488.5s138.7,339.16,500.7,334.16
			c70.76-0.98,132.93-14.36,187.17-35.23l144.35,144.35l56.57-56.57l-774.5-774.5L57.72,157.28z M500,712
			c-123.16,0-223-99.84-223-223c0-32.97,7.16-64.27,20-92.43L374.43,474c-0.94,6.36-1.43,12.87-1.43,19.5
			c0,73.18,59.32,132.5,132.5,132.5c6.63,0,13.13-0.49,19.5-1.43L592.43,692C564.27,704.84,532.97,712,500,712z"/>
		<path d="M500,266c123.16,0,223,99.84,223,223c0,31.92-6.72,62.27-18.81,89.73l126.15,126.15C949.87,608.66,1000,488.5,1000,488.5
			s-138-329-500-334c-71.2-0.98-133.73,11.35-188.26,31.78l98.52,98.52C437.73,272.72,468.08,266,500,266z"/>
		<path d="M487.66,362.2L636.8,511.34c0.79-5.84,1.2-11.79,1.2-17.84c0-73.18-59.32-132.5-132.5-132.5
			C499.45,361,493.5,361.41,487.66,362.2z"/>
	</g>
</g>
<g id="Ebene_3">
</g>
</svg>
